<svg xmlns="http://www.w3.org/2000/svg" viewBox="0 0 249.701 87.848"><defs><style>.a{fill:none;stroke:#999;stroke-miterlimit:10;stroke-width:2px;}.b{fill:#2d2767;}.c{fill:#ed6d1d;}.d{fill:#999;}</style></defs><g transform="translate(0 -48)"><g transform="translate(108.683 49.005)"><g transform="translate(96.529)"><g transform="translate(0.814 8.517)"><path class="a" d="M809.3,146.649a4.492,4.492,0,0,1,2.957-2.116,20.142,20.142,0,0,1,2.849.217,4.451,4.451,0,0,0,2.523-.488,2.339,2.339,0,0,0,1.194-2.17c-.109-.9-.841-1.574-1.14-2.442a5.506,5.506,0,0,1-.027-2.74c.163-.977.326-1.953.461-2.93a5.951,5.951,0,0,1,1.574-3.771,5.206,5.206,0,0,1,3.717-.868,17.96,17.96,0,0,1,3.418.543,4.585,4.585,0,0,1,2.062,1,3.359,3.359,0,0,1,.922,2.17,8.855,8.855,0,0,1-.163,2.387c-.19,1.411-.407,2.849-.6,4.259a3.529,3.529,0,0,1-.542,1.682A9.433,9.433,0,0,1,827.1,142.5a2.752,2.752,0,0,0-.868,2.5,1.577,1.577,0,0,0,.461.95,2.975,2.975,0,0,0,1.357.624c.977.244,1.953.515,2.9.814a4.458,4.458,0,0,1,1.411.651c.678.57.814,2.17,1,3.039" transform="translate(-795.762 -116.046)"/><line class="a" x2="41.4" y2="6.647" transform="translate(0 2.794)"/><path class="a" d="M909.7,344.4" transform="translate(-868.924 -272.777)"/><path class="a" d="M775.5,322.8" transform="translate(-771.132 -257.037)"/><line class="a" x2="8.926" y2="1.438" transform="translate(16.793)"/></g><path class="a" d="M756.4,66.964l2.143-14.542c.3-2.116,1.981-3.635,3.69-3.391l35.025,5.155c1.736.244,2.876,2.2,2.577,4.314l-7.813,53.283" transform="translate(-756.4 -49.005)"/></g><g transform="translate(0 23.303)"><g transform="translate(0 0.054)"><path class="b" d="M441.81,213.311V195.052a11.013,11.013,0,0,0-.922-5.128,3.127,3.127,0,0,0-2.957-1.709,4.117,4.117,0,0,0-3.907,2.279c-.841,1.519-1.248,3.907-1.248,7.135v15.654H421.164V195.025a11.425,11.425,0,0,0-.9-5.128,3.009,3.009,0,0,0-2.876-1.709,4.132,4.132,0,0,0-3.961,2.442c-.814,1.628-1.248,4.259-1.248,7.949v14.7H400.6V179.7h10.825v4.178l.027-.027a8.613,8.613,0,0,1,3.88-3.527,13.108,13.108,0,0,1,5.779-1.221c4.856,0,8.248,1.465,10.2,4.422l.461.651a9.157,9.157,0,0,1,4.422-3.907,13.051,13.051,0,0,1,5.589-1.167c3.961,0,6.918,1.031,8.817,3.066s2.849,5.128,2.849,9.278v21.867Z" transform="translate(-400.6 -167.163)"/><path class="b" d="M622.1,213.311l-.027-4.449h0a13.25,13.25,0,0,1-4.775,3.961A15.934,15.934,0,0,1,611,213.881a9.812,9.812,0,0,1-7.461-2.849c-1.818-1.9-2.74-4.558-2.74-8,0-3.581,1.248-6.24,3.744-8,2.5-1.736,6.1-2.74,10.825-2.957l5.616-.19v-.461c0-2.767-1.357-4.151-4.1-4.151-2.442,0-5.562.841-9.333,2.5l-3.364-7.651Q610.051,179.1,619,179.1c4.314,0,7.651,1.058,10.011,3.2s3.554,5.128,3.554,8.953v22.03H622.1Zm-6.186-7.6a5.208,5.208,0,0,0,3.608-1.329,4.4,4.4,0,0,0,1.492-3.473v-2.6l-2.659.109c-3.825.136-5.725,1.546-5.725,4.205C612.629,204.684,613.741,205.715,615.912,205.715Z" transform="translate(-546.486 -167.163)"/><path class="b" d="M741.985,214.914H730.4V181.3h11.584Z" transform="translate(-640.925 -168.766)"/><path class="b" d="M797.784,181.248H786.2V135.1h11.584Z" transform="translate(-681.587 -135.1)"/></g><circle class="c" cx="5.806" cy="5.806" r="5.806" transform="translate(89.448)"/></g><g transform="translate(35.323 73.006)"><path class="d" d="M544.365,334.422h-1.628v8.654h-1.3v-2.74a2.674,2.674,0,0,1-.651.081,2.152,2.152,0,0,1-1.709-.76,2.61,2.61,0,0,1-.678-1.818,2.48,2.48,0,0,1,.678-1.763,2.136,2.136,0,0,1,1.682-.76,1.972,1.972,0,0,1,.678.109v-.977h-4.151a3.754,3.754,0,0,1,.76,2.252,3.508,3.508,0,0,1-2.767,3.5l3.147,2.876H536.28l-4.829-4.368.922-1c.57.515.868.787.922.841a1.837,1.837,0,0,0,1.167.434,2.106,2.106,0,0,0,1.6-.651,2.187,2.187,0,0,0,.624-1.628,2.3,2.3,0,0,0-1.546-2.279H530.8V333.5h13.565Zm-2.93,4.476v-2.062a1.082,1.082,0,0,0-.651-.244,1,1,0,0,0-.814.407,1.4,1.4,0,0,0-.325.9,1.28,1.28,0,0,0,.325.868,1.032,1.032,0,0,0,.814.353A1.1,1.1,0,0,0,541.435,338.9Z" transform="translate(-530.8 -329.322)"/><path class="d" d="M588.224,334.5h-1.546v8.682h-1.329v-1.736a3.362,3.362,0,0,1-2.225.814,3.321,3.321,0,0,1-2.387-.977,3.082,3.082,0,0,1-1-2.333,3.3,3.3,0,0,1,1-2.415,3.194,3.194,0,0,1,2.387-1.058,3.238,3.238,0,0,1,1.845.6v1.872a1.893,1.893,0,0,0-1.818-1.139,4.072,4.072,0,0,0-.543.054l2.333,3.039a1.894,1.894,0,0,0,.38-.814V334.5H579v-.9h9.224Zm-4.232,6.267-2.523-3.174a2.038,2.038,0,0,0-.434,1.3,2.091,2.091,0,0,0,.6,1.492,1.882,1.882,0,0,0,1.438.651A2.39,2.39,0,0,0,583.992,340.762Z" transform="translate(-565.923 -329.395)"/><path class="d" d="M620.317,334.35h-2.225a3.245,3.245,0,0,1,.407.95,3.637,3.637,0,0,1,.19,1.058,3.305,3.305,0,0,1-2.794,3.581l3.825,3.093h-2.008l-5.589-4.531.922-.922.95.787a2.116,2.116,0,0,0,1.139.38,2.166,2.166,0,0,0,1.628-.651,2.209,2.209,0,0,0,.624-1.655,2.278,2.278,0,0,0-1.167-2.116H611.5V333.4h8.817Z" transform="translate(-589.606 -329.249)"/><path class="d" d="M657.849,334.641h-7v1.574a3.336,3.336,0,0,1,2.225-.787,3.527,3.527,0,0,1,2.523,1.031,3.359,3.359,0,0,1,1.058,2.523,3.813,3.813,0,0,1-1.031,2.6,3.231,3.231,0,0,1-2.5,1.139,3.744,3.744,0,0,1-1.6-.38v-1.6a2.133,2.133,0,0,0,3.093-.081,2.2,2.2,0,0,0,.678-1.6,2.04,2.04,0,0,0-.678-1.546,2.218,2.218,0,0,0-1.573-.651,2.167,2.167,0,0,0-1.465.57,1.692,1.692,0,0,0-.733,1.356v4.585h-1.384v-1.384a3.337,3.337,0,0,1-2.225.787,3.613,3.613,0,0,1-3.581-3.581,3.814,3.814,0,0,1,1.031-2.6,3.206,3.206,0,0,1,2.5-1.112,3.535,3.535,0,0,1,1.763.488v1.736a2.068,2.068,0,0,0-1.682-.814,2.113,2.113,0,0,0-1.6.678,2.19,2.19,0,0,0-.651,1.6,2.106,2.106,0,0,0,.651,1.6,2.3,2.3,0,0,0,1.628.624,2.192,2.192,0,0,0,1.574-.6,2,2,0,0,0,.624-1.519v-4.558H642.9V333.8h14.949Z" transform="translate(-612.487 -329.541)"/><path class="d" d="M700.144,334.422H698.6V343.1h-1.384v-8.682H696.4V333.5h3.744Z" transform="translate(-651.473 -329.322)"/><path class="d" d="M685.914,321.708a1.443,1.443,0,0,0-.977.705,4.482,4.482,0,0,1-1.465-1.329,8.653,8.653,0,0,0-1.14-1.329,4.474,4.474,0,0,0-2.333-.787l.977-.868a4.137,4.137,0,0,1,2.062.814,11.814,11.814,0,0,1,1.3,1.384A6.216,6.216,0,0,0,685.914,321.708Z" transform="translate(-639.522 -318.1)"/><path class="d" d="M735.492,326.022a3.65,3.65,0,0,0-6.077,0h1.411v.922h-1.574V335.6h-1.384v-8.655H727v-.922h.922a4.958,4.958,0,0,1,1.818-2.062,4.933,4.933,0,0,1,7.108,2.062Z" transform="translate(-673.771 -321.816)"/><path class="d" d="M747.439,334.422H739.3V333.5h11.123v.922h-1.6v8.655h-1.383V337.3h-4.314a1.742,1.742,0,0,0-1.356.57,1.948,1.948,0,0,0-.515,1.384,1.814,1.814,0,0,0,1.872,1.926,1.8,1.8,0,0,0,1.384-.57,1.99,1.99,0,0,0,.543-1.411,1.786,1.786,0,0,0-.949-1.628h1.655a3.252,3.252,0,0,1,.488,1.682,3.022,3.022,0,0,1-.95,2.2,3.054,3.054,0,0,1-2.225.922,2.936,2.936,0,0,1-2.17-.922,3.06,3.06,0,0,1-.9-2.17,3.057,3.057,0,0,1,3.093-3.093h4.314v-1.763Z" transform="translate(-682.734 -329.322)"/><path class="d" d="M788.83,333.84h-1.574v8.654h-1.384V341.11a4.3,4.3,0,0,1-2.794.868,3.776,3.776,0,0,1-2.5-.868,3.041,3.041,0,0,1-1.085-2.36,2.968,2.968,0,0,1,1-2.279,2.305,2.305,0,0,1-.488-1.438,2.16,2.16,0,0,1,.326-1.167H778.9v-.922h1.6v.651a2.162,2.162,0,0,1,1.791-.9,2.25,2.25,0,0,1,1.465.515,2.22,2.22,0,0,1,.814,1.329h-1.3a.977.977,0,0,0-.9-.6,1.056,1.056,0,0,0-.787.353,1.015,1.015,0,0,0-.353.787,1.052,1.052,0,0,0,.271.705,3.3,3.3,0,0,1,1.248-.244,3.1,3.1,0,0,1,1.112.19v1.492a1.759,1.759,0,0,0-2.469.217,2,2,0,0,0-.6,1.384,1.68,1.68,0,0,0,.678,1.438,2.516,2.516,0,0,0,1.6.516,2.738,2.738,0,0,0,2.795-1.736V333.84h-.922v-.922H788.8v.922Z" transform="translate(-711.59 -328.739)"/><path class="d" d="M817.844,334.422H816.3V343.1h-1.384v-8.682H814.1V333.5h3.744Z" transform="translate(-737.241 -329.322)"/><path class="d" d="M803.514,321.708a1.443,1.443,0,0,0-.977.705,4.485,4.485,0,0,1-1.465-1.329,8.659,8.659,0,0,0-1.139-1.329,4.475,4.475,0,0,0-2.333-.787l.977-.868a4.138,4.138,0,0,1,2.062.814,11.813,11.813,0,0,1,1.3,1.384A6.71,6.71,0,0,0,803.514,321.708Z" transform="translate(-725.217 -318.1)"/></g></g><g transform="translate(0 66.868)"><g transform="translate(0 15.315)"><path class="c" d="M30.657,174.013v3.608H37.2v11.612a12.645,12.645,0,0,1-3.88,1.465c-.705-.217-2.035.76-4.205,0a1.974,1.974,0,0,1-1.194-.326l-2.55-3.2a8.656,8.656,0,0,0,2.008-5.263,10.136,10.136,0,0,0-3.147-7.542A10.545,10.545,0,0,0,16.6,171.3a18.009,18.009,0,0,0-9.36,2.659,2.779,2.779,0,0,0-1.411,2.469,2.638,2.638,0,0,0,.136.733c1.194,3.663,2.306,5.48,3.337,5.48a1.472,1.472,0,0,0,1.465-1.058,9.141,9.141,0,0,1,.814-2.6,5.572,5.572,0,0,1,2.143-1.736,13.477,13.477,0,0,1,6.538-1.329c2.035.054,3.066.95,3.066,2.74,0,1.953-1.139,3.527-3.391,4.748a12.264,12.264,0,0,1-6,1.546c-1.519,0-2.279.57-2.279,1.682a3.78,3.78,0,0,0,1.275,2.93,4.426,4.426,0,0,0,3.066,1.139,13.3,13.3,0,0,0,6.348-1.791c1.329,1.872,2.008,3.337,2.008,4.4a10.015,10.015,0,0,1-2.008,6.267,6.681,6.681,0,0,1-5.752,2.794,13.81,13.81,0,0,1-8.953-3.337c-2.632-2.225-4.829-7-5.345-10.581-.705-2.333.353-4.124-2.306-4.476a29.256,29.256,0,0,0,4.341,15.41q4.883,7.895,12.941,8.031a12.715,12.715,0,0,0,8.817-3.093,10.434,10.434,0,0,0,3.934-8.383,9,9,0,0,0-.733-2.55,27.46,27.46,0,0,0,7.868,2.279v3.663c0,.3.027,8.085.054,8.356h5.29v-30.06h3.066v-3.608Z" transform="translate(0 -171.3)"/><path class="c" d="M160.5,181.3v3.608h-2.2v.054h6.538v21.65c0,.3.027,8.085.054,8.356h5.29V184.963h3.934V181.3Z" transform="translate(-115.353 -178.587)"/><rect class="c" width="2.198" height="3.608" transform="translate(42.947 2.713)"/><path class="c" d="M242.376,184.963h4.205V181.3H211.8v3.663h13.891a8.08,8.08,0,0,1,2.008,3.31,4.541,4.541,0,0,1-4.666,4.368,2.927,2.927,0,0,1-2.659-1.546,3.562,3.562,0,0,0-.922-2.225,2.755,2.755,0,0,0-2.143-.977,2.5,2.5,0,0,0-2.279,1.736,7,7,0,0,0-.678,3.011c0,3.663,1.411,7.379,4.205,11.15,3.039,4.042,6.294,6.131,9.821,6.213,1.953.054,4.883-1.058,8.817-3.283.027.244.054,8,.081,8.22H242.4V184.963Zm-5.345,15.518c-3.12,3.635-6.674,5.453-10.689,5.453-1.953,0-3.5-1.167-4.612-3.473a15.879,15.879,0,0,1-1.411-6.077,5.475,5.475,0,0,0,3.934,1.465,6.238,6.238,0,0,0,4.883-2.17,7.272,7.272,0,0,0,1.926-5.073,12.216,12.216,0,0,0-2.008-5.643H237v15.518Z" transform="translate(-154.339 -178.587)"/><rect class="c" width="1.329" height="3.663" transform="translate(58.764 2.713)"/><path class="c" d="M330.509,184.963v21.65c0,.3.027,8.112.054,8.383h5.29V184.963h5.263V181.3H325.3v3.663Z" transform="translate(-237.046 -178.587)"/><rect class="c" width="1.329" height="3.663" transform="translate(94.874 2.713)"/></g><path class="c" d="M293.165,136.024s-8-24.309-21.46-20.836c0,0-9.821,3.825-1.9,11.422,0,0,9.061,6.1,21.975-5.073l-2.306-.9s-13.131,7.813-17.879,2.5c-.841-.814-2.089-3.771,2.632-4.205,0,0,5.86-.95,16.305,16.522Z" transform="translate(-194.357 -114.848)"/></g></g></svg>